<?xml version="1.0" encoding="utf-8"?>
<!-- Generator: Adobe Illustrator 16.0.0, SVG Export Plug-In . SVG Version: 6.00 Build 0)  -->
<!DOCTYPE svg PUBLIC "-//W3C//DTD SVG 1.1//EN" "http://www.w3.org/Graphics/SVG/1.1/DTD/svg11.dtd">
<svg version="1.1" id="Camada_1" xmlns="http://www.w3.org/2000/svg" xmlns:xlink="http://www.w3.org/1999/xlink" x="0px" y="0px"
	 width="223.064px" height="60px" viewBox="0 0 223.064 60" enable-background="new 0 0 223.064 60" xml:space="preserve">
<g>
	<g>
		<path fill="#EBECED" d="M3.181,51.964c0.912,0,1.622,0.254,2.128,0.763s0.758,1.217,0.758,2.122v1.264
			c0,0.119-0.028,0.272-0.085,0.458c-0.056,0.187-0.184,0.366-0.384,0.537c-0.2,0.172-0.489,0.32-0.869,0.442
			c-0.379,0.123-0.895,0.185-1.548,0.185s-1.169-0.062-1.548-0.185c-0.38-0.123-0.669-0.27-0.869-0.442
			c-0.2-0.171-0.328-0.351-0.385-0.537c-0.056-0.186-0.084-0.338-0.084-0.458c0-0.429,0.067-0.766,0.199-1.011
			c0.134-0.246,0.313-0.43,0.537-0.554c0.226-0.122,0.491-0.201,0.796-0.236c0.306-0.035,0.634-0.053,0.985-0.053h2.465
			c-0.1-0.506-0.324-0.892-0.675-1.158s-0.825-0.4-1.422-0.4c-0.604,0-1.092,0.144-1.465,0.432l-0.451-0.58
			C1.763,52.16,2.401,51.964,3.181,51.964z M5.329,54.997H3.181c-0.471,0-0.848,0.012-1.132,0.036
			c-0.285,0.025-0.503,0.076-0.653,0.153c-0.151,0.077-0.249,0.19-0.295,0.336c-0.045,0.148-0.069,0.345-0.069,0.591
			c0,0.162,0.064,0.298,0.19,0.411c0.127,0.112,0.292,0.203,0.494,0.273c0.204,0.07,0.435,0.121,0.69,0.153
			c0.257,0.032,0.515,0.048,0.774,0.048c0.259,0,0.518-0.016,0.774-0.048s0.485-0.083,0.689-0.153
			c0.203-0.07,0.369-0.162,0.495-0.273c0.126-0.112,0.189-0.249,0.189-0.411V54.997z"/>
		<path fill="#EBECED" d="M9.867,51.964c0.914,0,1.623,0.254,2.128,0.763c0.506,0.509,0.759,1.217,0.759,2.122v2.275
			c0,0.905-0.255,1.611-0.764,2.117S10.773,60,9.867,60v-0.738c0.697,0,1.227-0.183,1.591-0.548c0.366-0.365,0.548-0.896,0.548-1.59
			v-0.169c-0.505,0.52-1.219,0.779-2.139,0.779c-0.911,0-1.621-0.252-2.126-0.758c-0.506-0.506-0.758-1.215-0.758-2.128
			c0-0.905,0.252-1.613,0.758-2.122C8.246,52.218,8.956,51.964,9.867,51.964z M12.017,54.849c0-0.702-0.182-1.236-0.547-1.601
			c-0.366-0.365-0.899-0.547-1.603-0.547c-0.701,0-1.234,0.182-1.6,0.547c-0.364,0.365-0.547,0.899-0.547,1.601
			s0.183,1.236,0.547,1.601c0.365,0.365,0.898,0.548,1.6,0.548c0.653,0,1.161-0.158,1.523-0.474c0.361-0.316,0.566-0.78,0.615-1.391
			L12.017,54.849z"/>
		<path fill="#EBECED" d="M16.672,51.964c0.912,0,1.622,0.254,2.128,0.763c0.505,0.509,0.758,1.217,0.758,2.122v0.01
			c0,0.105-0.036,0.193-0.11,0.264s-0.16,0.105-0.258,0.105h-4.645c0.063,0.576,0.273,1.015,0.631,1.316
			c0.359,0.302,0.853,0.453,1.486,0.453c0.681,0,1.203-0.176,1.569-0.527l0.516,0.527c-0.513,0.491-1.208,0.737-2.085,0.737
			c-0.906,0-1.612-0.252-2.117-0.758c-0.506-0.506-0.759-1.211-0.759-2.118v-0.01c0-0.905,0.253-1.613,0.759-2.122
			C15.05,52.218,15.759,51.964,16.672,51.964z M18.81,54.491c-0.063-0.583-0.275-1.027-0.637-1.333
			c-0.361-0.305-0.862-0.458-1.501-0.458s-1.139,0.152-1.501,0.458c-0.361,0.306-0.57,0.75-0.626,1.333H18.81z M16.408,51.121
			h-0.842l0.811-1.243c0.07-0.105,0.168-0.158,0.295-0.158c0.126,0,0.225,0.052,0.294,0.158l0.813,1.243h-0.844l-0.263-0.4
			L16.408,51.121z"/>
		<path fill="#EBECED" d="M25.803,57.682h-0.738v-2.823c0-0.695-0.153-1.227-0.462-1.596c-0.311-0.368-0.76-0.552-1.349-0.552
			s-1.039,0.184-1.348,0.552c-0.31,0.369-0.463,0.901-0.463,1.596v2.823h-0.737v-2.823c0-0.905,0.223-1.613,0.669-2.122
			c0.444-0.509,1.072-0.764,1.879-0.764c0.801,0,1.425,0.254,1.875,0.764c0.449,0.509,0.674,1.216,0.674,2.122V57.682z"/>
		<path fill="#EBECED" d="M31.742,56.998c-0.252,0.246-0.556,0.43-0.91,0.552c-0.354,0.123-0.75,0.185-1.185,0.185
			c-0.913,0-1.622-0.252-2.128-0.758c-0.505-0.506-0.759-1.215-0.759-2.128c0-0.905,0.254-1.613,0.759-2.122
			c0.506-0.509,1.215-0.763,2.128-0.763c0.75,0,1.372,0.186,1.863,0.558l-0.441,0.59c-0.359-0.273-0.834-0.41-1.422-0.41
			c-0.703,0-1.236,0.184-1.602,0.552c-0.364,0.369-0.547,0.901-0.547,1.596c0,0.702,0.183,1.236,0.547,1.601
			c0.365,0.365,0.898,0.548,1.602,0.548c0.681,0,1.206-0.179,1.579-0.538L31.742,56.998z"/>
		<path fill="#EBECED" d="M33.775,49.479v0.989h-0.737v-0.989H33.775z M33.038,57.682V52.08h0.737v5.603H33.038z"/>
		<path fill="#EBECED" d="M37.841,51.964c0.912,0,1.622,0.254,2.128,0.763c0.505,0.509,0.758,1.217,0.758,2.122v1.264
			c0,0.119-0.028,0.272-0.085,0.458c-0.056,0.187-0.184,0.366-0.384,0.537c-0.2,0.172-0.489,0.32-0.87,0.442
			c-0.378,0.123-0.895,0.185-1.547,0.185c-0.653,0-1.169-0.062-1.549-0.185c-0.379-0.123-0.669-0.27-0.869-0.442
			c-0.2-0.171-0.327-0.351-0.385-0.537c-0.056-0.186-0.084-0.338-0.084-0.458c0-0.429,0.066-0.766,0.2-1.011
			c0.133-0.246,0.313-0.43,0.537-0.554c0.226-0.122,0.49-0.201,0.796-0.236c0.306-0.035,0.634-0.053,0.984-0.053h2.464
			c-0.098-0.506-0.322-0.892-0.673-1.158c-0.352-0.267-0.825-0.4-1.422-0.4c-0.604,0-1.093,0.144-1.465,0.432l-0.452-0.58
			C36.422,52.16,37.062,51.964,37.841,51.964z M39.989,54.997h-2.148c-0.471,0-0.849,0.012-1.133,0.036
			c-0.284,0.025-0.502,0.076-0.653,0.153c-0.15,0.077-0.249,0.19-0.295,0.336c-0.045,0.148-0.068,0.345-0.068,0.591
			c0,0.162,0.063,0.298,0.19,0.411c0.125,0.112,0.291,0.203,0.494,0.273s0.434,0.121,0.689,0.153
			c0.258,0.032,0.516,0.048,0.775,0.048c0.259,0,0.518-0.016,0.774-0.048c0.255-0.032,0.485-0.083,0.688-0.153
			c0.204-0.07,0.37-0.162,0.496-0.273c0.126-0.112,0.189-0.249,0.189-0.411V54.997z"/>
		<path fill="#EBECED" d="M46.171,54.859c0-0.912,0.253-1.622,0.759-2.127c0.505-0.505,1.214-0.758,2.128-0.758
			c0.463,0,0.874,0.068,1.236,0.206c0.361,0.136,0.666,0.332,0.911,0.584v-3.275h0.728v5.371c0,0.906-0.254,1.611-0.759,2.118
			c-0.506,0.505-1.212,0.758-2.116,0.758c-0.914,0-1.623-0.252-2.128-0.758C46.424,56.471,46.171,55.766,46.171,54.859z
			 M46.908,54.859c0,0.696,0.183,1.227,0.547,1.596c0.366,0.369,0.899,0.553,1.603,0.553c0.694,0,1.225-0.185,1.594-0.553
			s0.554-0.9,0.554-1.596c0-0.702-0.185-1.235-0.554-1.601c-0.369-0.365-0.899-0.547-1.594-0.547c-0.703,0-1.236,0.183-1.603,0.547
			C47.091,53.624,46.908,54.158,46.908,54.859z"/>
		<path fill="#EBECED" d="M55.913,51.964c0.912,0,1.621,0.254,2.128,0.763c0.505,0.509,0.757,1.217,0.757,2.122v0.01
			c0,0.105-0.035,0.193-0.11,0.264c-0.073,0.07-0.159,0.105-0.257,0.105h-4.646c0.063,0.576,0.274,1.015,0.632,1.316
			c0.358,0.302,0.853,0.453,1.485,0.453c0.681,0,1.204-0.176,1.569-0.527l0.516,0.527c-0.512,0.491-1.208,0.737-2.085,0.737
			c-0.905,0-1.611-0.252-2.117-0.758c-0.506-0.506-0.758-1.211-0.758-2.118v-0.01c0-0.905,0.252-1.613,0.758-2.122
			S55,51.964,55.913,51.964z M58.05,54.491c-0.063-0.583-0.274-1.027-0.637-1.333c-0.361-0.305-0.861-0.458-1.5-0.458
			c-0.64,0-1.14,0.152-1.5,0.458c-0.363,0.306-0.571,0.75-0.628,1.333H58.05z"/>
		<path fill="#EBECED" d="M65.381,49.479v0.989h-0.738v-0.989H65.381z M64.643,57.682V52.08h0.738v5.603H64.643z"/>
		<path fill="#EBECED" d="M66.581,54.859c0-0.912,0.252-1.622,0.758-2.127s1.215-0.758,2.128-0.758c0.463,0,0.876,0.068,1.237,0.206
			c0.362,0.136,0.665,0.332,0.911,0.584v-3.275h0.727v5.371c0,0.906-0.253,1.611-0.759,2.118c-0.504,0.505-1.21,0.758-2.116,0.758
			c-0.913,0-1.622-0.252-2.128-0.758C66.833,56.471,66.581,55.766,66.581,54.859z M67.317,54.859c0,0.696,0.184,1.227,0.548,1.596
			c0.366,0.369,0.899,0.553,1.602,0.553c0.695,0,1.228-0.185,1.596-0.553c0.369-0.369,0.553-0.9,0.553-1.596
			c0-0.702-0.184-1.235-0.553-1.601c-0.368-0.365-0.9-0.547-1.596-0.547c-0.702,0-1.235,0.183-1.602,0.547
			C67.501,53.624,67.317,54.158,67.317,54.859z"/>
		<path fill="#EBECED" d="M76.322,51.964c0.914,0,1.623,0.254,2.128,0.763c0.506,0.509,0.759,1.217,0.759,2.122v0.01
			c0,0.105-0.037,0.193-0.11,0.264c-0.074,0.07-0.16,0.105-0.259,0.105h-4.645c0.064,0.576,0.274,1.015,0.633,1.316
			c0.356,0.302,0.853,0.453,1.484,0.453c0.681,0,1.204-0.176,1.568-0.527l0.517,0.527c-0.512,0.491-1.207,0.737-2.085,0.737
			c-0.905,0-1.611-0.252-2.117-0.758c-0.505-0.506-0.757-1.211-0.757-2.118v-0.01c0-0.905,0.252-1.613,0.757-2.122
			C74.701,52.218,75.41,51.964,76.322,51.964z M78.461,54.491c-0.063-0.583-0.275-1.027-0.638-1.333
			c-0.361-0.305-0.861-0.458-1.501-0.458c-0.639,0-1.14,0.152-1.5,0.458c-0.361,0.306-0.57,0.75-0.627,1.333H78.461z"/>
		<path fill="#EBECED" d="M81.283,49.479v0.989h-0.736v-0.989H81.283z M80.547,57.682V52.08h0.736v5.603H80.547z"/>
		<path fill="#EBECED" d="M85.349,51.964c0.912,0,1.622,0.254,2.127,0.763c0.506,0.509,0.759,1.217,0.759,2.122v1.264
			c0,0.119-0.029,0.272-0.085,0.458c-0.056,0.187-0.185,0.366-0.384,0.537c-0.2,0.172-0.489,0.32-0.869,0.442
			c-0.379,0.123-0.895,0.185-1.548,0.185S84.18,57.673,83.8,57.55c-0.379-0.123-0.669-0.27-0.869-0.442
			c-0.2-0.171-0.328-0.351-0.384-0.537c-0.057-0.186-0.085-0.338-0.085-0.458c0-0.429,0.067-0.766,0.2-1.011
			c0.134-0.246,0.313-0.43,0.537-0.554c0.226-0.122,0.49-0.201,0.796-0.236c0.306-0.035,0.634-0.053,0.984-0.053h2.466
			c-0.1-0.506-0.324-0.892-0.675-1.158c-0.352-0.267-0.826-0.4-1.422-0.4c-0.604,0-1.093,0.144-1.465,0.432l-0.452-0.58
			C83.93,52.16,84.569,51.964,85.349,51.964z M87.497,54.997h-2.148c-0.471,0-0.848,0.012-1.133,0.036
			c-0.284,0.025-0.502,0.076-0.652,0.153c-0.151,0.077-0.249,0.19-0.295,0.336c-0.046,0.148-0.069,0.345-0.069,0.591
			c0,0.162,0.063,0.298,0.19,0.411c0.127,0.112,0.291,0.203,0.494,0.273c0.204,0.07,0.435,0.121,0.69,0.153
			c0.257,0.032,0.515,0.048,0.774,0.048c0.259,0,0.518-0.016,0.774-0.048c0.255-0.032,0.485-0.083,0.689-0.153
			c0.203-0.07,0.368-0.162,0.495-0.273c0.125-0.112,0.189-0.249,0.189-0.411V54.997z"/>
		<path fill="#EBECED" d="M91.31,54.501c0.231,0.05,0.468,0.104,0.706,0.164c0.237,0.06,0.454,0.147,0.647,0.263
			c0.192,0.115,0.349,0.269,0.469,0.458c0.119,0.189,0.178,0.432,0.178,0.727c0,0.505-0.186,0.902-0.558,1.19
			s-0.877,0.432-1.517,0.432c-0.645,0-1.154-0.144-1.526-0.432s-0.558-0.685-0.558-1.19h0.736c0,0.182,0.04,0.331,0.121,0.447
			s0.186,0.208,0.315,0.274c0.131,0.067,0.275,0.112,0.438,0.137s0.32,0.037,0.474,0.037c0.154,0,0.312-0.012,0.469-0.037
			c0.159-0.025,0.302-0.07,0.433-0.137c0.129-0.066,0.236-0.158,0.32-0.274c0.085-0.116,0.128-0.265,0.128-0.447
			c0-0.127-0.02-0.232-0.06-0.316c-0.038-0.084-0.109-0.16-0.215-0.226c-0.106-0.067-0.252-0.126-0.438-0.179
			c-0.187-0.053-0.427-0.111-0.722-0.174c-0.231-0.049-0.467-0.105-0.705-0.168c-0.239-0.064-0.455-0.153-0.648-0.27
			c-0.193-0.115-0.349-0.269-0.469-0.458c-0.119-0.19-0.178-0.436-0.178-0.737c0-0.505,0.186-0.902,0.558-1.19
			c0.372-0.287,0.882-0.431,1.526-0.431c0.64,0,1.145,0.144,1.517,0.431c0.372,0.289,0.558,0.685,0.558,1.19h-0.725
			c0-0.183-0.043-0.332-0.128-0.448c-0.084-0.116-0.191-0.205-0.32-0.269c-0.131-0.063-0.273-0.107-0.433-0.131
			c-0.157-0.025-0.314-0.037-0.469-0.037c-0.153,0-0.312,0.012-0.474,0.037c-0.162,0.024-0.307,0.068-0.438,0.131
			c-0.13,0.063-0.234,0.153-0.315,0.269s-0.121,0.265-0.121,0.448c0,0.12,0.017,0.221,0.048,0.305c0.031,0.084,0.098,0.16,0.2,0.227
			c0.102,0.066,0.244,0.132,0.432,0.195C90.753,54.375,91,54.438,91.31,54.501z"/>
	</g>
	<g>
		<path fill="#D6D6DA" d="M24.59,34.287h6.437c-0.945,3.605-2.747,6.353-5.407,8.239c-2.661,1.976-6.009,2.961-10.041,2.961
			c-4.893,0-8.713-1.588-11.458-4.764C1.372,37.634,0,33.214,0,27.463c0-5.492,1.329-9.784,3.99-12.874
			c2.747-3.174,6.566-4.763,11.458-4.763c5.149,0,9.142,1.545,11.974,4.635c1.545,1.889,2.659,4.077,3.348,6.566h-9.013
			c-0.431-0.857-0.858-1.501-1.287-1.931c-1.117-1.201-2.703-1.803-4.764-1.803c-1.89,0-3.434,0.602-4.635,1.803
			c-1.545,1.718-2.317,4.55-2.317,8.496c0,3.949,0.772,6.74,2.317,8.369c1.114,1.374,2.789,2.06,5.021,2.06
			c1.458,0,2.703-0.3,3.732-0.902c0.259-0.084,0.494-0.235,0.709-0.45c0.213-0.213,0.45-0.451,0.708-0.708
			c0.172-0.258,0.515-0.6,1.03-1.03C22.786,34.502,23.559,34.287,24.59,34.287z"/>
		<path fill="#D6D6DA" d="M32.442,44.843V28.236c0-3.347,0.493-6.157,1.48-8.433c0.986-2.273,2.337-4.097,4.055-5.471
			c1.63-1.288,3.541-2.23,5.73-2.832c2.188-0.6,4.441-0.901,6.758-0.901c0.171,0,0.386,0,0.644,0s0.472,0,0.645,0v9.14h-2.961
			c-2.491,0-4.336,0.601-5.536,1.802c-1.203,1.203-1.802,3.09-1.802,5.665v17.637H32.442z"/>
		<path fill="#D6D6DA" d="M76.472,34.287h6.437c-0.946,3.605-2.748,6.353-5.407,8.239c-2.661,1.976-6.008,2.961-10.042,2.961
			c-4.892,0-8.711-1.588-11.457-4.764c-2.748-3.089-4.12-7.509-4.12-13.26c0-5.492,1.33-9.784,3.991-12.874
			c2.746-3.174,6.566-4.763,11.458-4.763c5.149,0,9.141,1.545,11.972,4.635c2.747,3.176,4.12,7.596,4.12,13.26
			c0,0.344,0,0.644,0,0.901c0,0.258,0,0.43,0,0.515c0,0.43-0.044,0.73-0.128,0.901H61.023c0.084,2.661,0.728,4.635,1.93,5.922
			c1.115,1.374,2.788,2.06,5.021,2.06c1.459,0,2.703-0.3,3.733-0.902c0.257-0.084,0.492-0.235,0.708-0.45
			c0.213-0.213,0.451-0.451,0.708-0.708c0.084-0.258,0.406-0.6,0.965-1.03C74.646,34.502,75.442,34.287,76.472,34.287z
			 M61.023,24.245h13.13c-0.173-2.317-0.772-4.033-1.802-5.149c-1.116-1.201-2.703-1.803-4.764-1.803
			c-1.888,0-3.434,0.602-4.635,1.803C61.751,20.298,61.107,22.015,61.023,24.245z"/>
		<path fill="#D6D6DA" d="M106.726,43.427c-1.803,0.945-3.715,1.522-5.729,1.738c-2.018,0.213-3.798,0.322-5.343,0.322
			c-3.091,0-5.793-0.837-8.11-2.511s-3.477-4.441-3.477-8.304c0-3.604,1.051-6.179,3.154-7.724c2.103-1.545,4.783-2.575,8.046-3.09
			c0.429,0,0.943-0.064,1.546-0.193c0.599-0.129,1.286-0.235,2.059-0.321c3.777-0.516,5.666-1.63,5.666-3.348
			c0-1.288-0.666-2.124-1.997-2.51s-2.554-0.58-3.669-0.58c-1.202,0-2.274,0.173-3.218,0.515c-0.945,0.344-1.632,0.988-2.06,1.931
			h-8.626c0.342-2.66,1.546-4.848,3.604-6.566c2.318-1.973,5.62-2.961,9.913-2.961c4.807,0,8.41,0.816,10.814,2.446
			c2.488,1.718,3.733,4.12,3.733,7.209v11.714c0,3.435-0.623,6.116-1.866,8.047C109.922,41.174,108.44,42.57,106.726,43.427z
			 M104.665,27.592c-1.203,0.602-2.877,1.159-5.021,1.674l-2.961,0.644c-1.545,0.431-2.661,0.987-3.347,1.673
			c-0.602,0.946-0.9,1.889-0.9,2.833c0,1.287,0.385,2.317,1.158,3.089c0.772,0.688,1.887,1.03,3.347,1.03
			c2.401,0,4.291-0.686,5.665-2.06c1.371-1.372,2.06-3.261,2.06-5.664V27.592z"/>
		<path fill="#D6D6DA" d="M129.512,44.843c-2.832,0.171-5.902,0.129-9.205-0.129c-3.305-0.257-4.956-2.359-4.956-6.308V0.557h4.634
			c1.115,0,2.103,0.431,2.961,1.287c0.857,0.859,1.288,1.889,1.288,3.09v5.793h5.278v1.802c0,1.288-0.431,2.34-1.287,3.154
			c-0.858,0.816-1.889,1.223-3.09,1.223h-0.901V35.96c0,1.46,0.857,2.188,2.574,2.188h2.704V44.843z"/>
		<path fill="#D6D6DA" d="M131.057,0.557h4.635c1.201,0,2.23,0.431,3.089,1.287c0.857,0.859,1.288,1.889,1.288,3.09v2.704h-9.012
			V0.557z M131.057,10.599h4.635c1.201,0,2.23,0.43,3.089,1.287c0.857,0.859,1.288,1.889,1.288,3.089v29.868h-9.012V10.599z"/>
	</g>
	<g>
		<path fill="#DBAD4B" d="M160.993,14.264c5.197,0,9.248,1.451,12.149,4.352s4.351,6.971,4.351,12.208
			c0,5.198-1.449,9.248-4.351,12.148c-2.901,2.901-6.952,4.352-12.149,4.352c-5.237,0-9.308-1.451-12.209-4.352
			c-2.899-2.901-4.351-6.951-4.351-12.148V0h4.23v18.797c1.41-1.45,3.152-2.569,5.228-3.354S158.334,14.264,160.993,14.264z
			 M160.993,43.154c3.989,0,7.042-1.058,9.157-3.172c2.115-2.116,3.174-5.167,3.174-9.157c0-4.028-1.059-7.091-3.174-9.187
			c-2.115-2.095-5.168-3.143-9.157-3.143c-4.028,0-7.092,1.048-9.186,3.143c-2.097,2.096-3.144,5.158-3.144,9.187
			c0,3.99,1.047,7.041,3.144,9.157C153.901,42.096,156.965,43.154,160.993,43.154z"/>
		<path fill="#DBAD4B" d="M198.224,14.204c5.237,0,9.308,1.461,12.209,4.382c2.901,2.922,4.352,6.981,4.352,12.178v0.061
			c0,0.604-0.211,1.109-0.634,1.511c-0.423,0.403-0.918,0.604-1.481,0.604h-26.654c0.363,3.304,1.571,5.823,3.626,7.555
			c2.056,1.733,4.896,2.599,8.522,2.599c3.908,0,6.91-1.006,9.006-3.022l2.961,3.022c-2.941,2.821-6.93,4.231-11.967,4.231
			c-5.197,0-9.247-1.451-12.148-4.352c-2.901-2.901-4.351-6.951-4.351-12.148v-0.061c0-5.197,1.449-9.256,4.351-12.178
			C188.916,15.665,192.986,14.204,198.224,14.204z M210.493,28.709c-0.363-3.344-1.581-5.893-3.656-7.646
			c-2.076-1.752-4.947-2.629-8.613-2.629s-6.538,0.877-8.612,2.629c-2.077,1.752-3.274,4.302-3.597,7.646H210.493z"/>
		<path fill="#DBAD4B" d="M223.064,47.022h-4.23v-5.681h4.23V47.022z"/>
	</g>
</g>
</svg>
