<?xml version="1.0" encoding="utf-8"?>
<!-- Generator: Adobe Illustrator 16.0.0, SVG Export Plug-In . SVG Version: 6.00 Build 0)  -->
<!DOCTYPE svg PUBLIC "-//W3C//DTD SVG 1.1//EN" "http://www.w3.org/Graphics/SVG/1.1/DTD/svg11.dtd">
<svg version="1.1" id="Camada_1" xmlns="http://www.w3.org/2000/svg" xmlns:xlink="http://www.w3.org/1999/xlink" x="0px" y="0px"
	 width="375px" height="105px" viewBox="0 0 375 105" enable-background="new 0 0 375 105" xml:space="preserve">
<g>
	<g>
		<path fill="#EBECED" d="M7.775,88.932c1.513,0,2.69,0.422,3.529,1.266c0.84,0.845,1.258,2.018,1.258,3.52v2.097
			c0,0.198-0.048,0.451-0.141,0.759c-0.093,0.309-0.306,0.606-0.637,0.891c-0.332,0.286-0.812,0.53-1.441,0.733
			c-0.629,0.204-1.484,0.306-2.568,0.306c-1.083,0-1.938-0.102-2.567-0.306c-0.63-0.203-1.109-0.448-1.441-0.733
			c-0.333-0.285-0.545-0.582-0.639-0.891c-0.093-0.308-0.139-0.561-0.139-0.759c0-0.711,0.111-1.27,0.33-1.677
			c0.222-0.408,0.521-0.713,0.892-0.918c0.374-0.202,0.813-0.334,1.32-0.393c0.506-0.058,1.051-0.087,1.633-0.087h4.089
			c-0.164-0.839-0.537-1.479-1.119-1.921s-1.369-0.664-2.358-0.664c-1.001,0-1.812,0.238-2.43,0.716L4.597,89.91
			C5.423,89.258,6.482,88.932,7.775,88.932z M11.339,93.963H7.775c-0.78,0-1.406,0.02-1.878,0.061
			c-0.472,0.042-0.833,0.125-1.083,0.253c-0.251,0.128-0.413,0.315-0.489,0.559c-0.075,0.245-0.114,0.572-0.114,0.979
			c0,0.268,0.105,0.495,0.315,0.681s0.483,0.337,0.819,0.454c0.339,0.117,0.721,0.201,1.146,0.254
			c0.426,0.053,0.854,0.079,1.284,0.079c0.43,0,0.859-0.026,1.285-0.079c0.425-0.053,0.805-0.137,1.144-0.254
			c0.337-0.116,0.611-0.268,0.821-0.454c0.208-0.186,0.313-0.413,0.313-0.681V93.963z"/>
		<path fill="#EBECED" d="M18.867,88.932c1.516,0,2.691,0.422,3.529,1.266c0.839,0.845,1.259,2.018,1.259,3.52v3.774
			c0,1.502-0.423,2.673-1.267,3.511c-0.845,0.838-2.019,1.258-3.521,1.258v-1.223c1.155,0,2.033-0.303,2.638-0.909
			c0.607-0.605,0.909-1.485,0.909-2.637v-0.28c-0.837,0.863-2.021,1.293-3.547,1.293c-1.513,0-2.689-0.419-3.527-1.257
			c-0.839-0.839-1.257-2.015-1.257-3.529c0-1.502,0.418-2.675,1.257-3.52C16.178,89.354,17.354,88.932,18.867,88.932z
			 M22.433,93.718c0-1.165-0.303-2.05-0.908-2.656c-0.606-0.605-1.492-0.907-2.657-0.907c-1.164,0-2.049,0.302-2.654,0.907
			c-0.604,0.606-0.907,1.491-0.907,2.656s0.303,2.05,0.907,2.655c0.605,0.605,1.49,0.909,2.654,0.909
			c1.083,0,1.926-0.263,2.526-0.787c0.6-0.523,0.939-1.293,1.021-2.306L22.433,93.718z"/>
		<path fill="#EBECED" d="M30.154,88.932c1.513,0,2.689,0.422,3.529,1.266c0.837,0.845,1.257,2.018,1.257,3.52v0.017
			c0,0.175-0.061,0.32-0.184,0.438c-0.122,0.116-0.266,0.175-0.428,0.175h-7.704c0.104,0.955,0.454,1.683,1.047,2.184
			c0.596,0.501,1.415,0.751,2.465,0.751c1.13,0,1.997-0.292,2.604-0.875l0.855,0.875c-0.851,0.814-2.004,1.222-3.459,1.222
			c-1.503,0-2.673-0.419-3.512-1.257c-0.839-0.839-1.259-2.009-1.259-3.512v-0.017c0-1.502,0.42-2.675,1.259-3.52
			C27.464,89.354,28.639,88.932,30.154,88.932z M33.699,93.125c-0.104-0.967-0.457-1.704-1.057-2.21
			c-0.599-0.506-1.43-0.759-2.488-0.759c-1.061,0-1.89,0.253-2.49,0.759c-0.6,0.507-0.946,1.243-1.039,2.21H33.699z M29.717,87.534
			h-1.397l1.346-2.062c0.115-0.175,0.277-0.262,0.489-0.262c0.208,0,0.372,0.087,0.487,0.262l1.347,2.062H30.59l-0.436-0.664
			L29.717,87.534z"/>
		<path fill="#EBECED" d="M45.299,98.417h-1.224v-4.682c0-1.152-0.255-2.035-0.768-2.647c-0.514-0.61-1.259-0.916-2.236-0.916
			c-0.977,0-1.724,0.306-2.235,0.916c-0.513,0.612-0.769,1.495-0.769,2.647v4.682h-1.223v-4.682c0-1.502,0.369-2.675,1.109-3.519
			c0.738-0.845,1.779-1.267,3.117-1.267c1.329,0,2.363,0.422,3.11,1.267c0.744,0.844,1.117,2.017,1.117,3.519V98.417z"/>
		<path fill="#EBECED" d="M55.15,97.282c-0.418,0.407-0.922,0.713-1.509,0.916c-0.589,0.204-1.244,0.306-1.966,0.306
			c-1.515,0-2.69-0.419-3.529-1.257c-0.838-0.839-1.258-2.015-1.258-3.529c0-1.502,0.42-2.675,1.258-3.52
			c0.839-0.844,2.015-1.266,3.529-1.266c1.245,0,2.276,0.308,3.091,0.925l-0.731,0.979c-0.596-0.454-1.383-0.681-2.359-0.681
			c-1.165,0-2.051,0.305-2.656,0.916c-0.604,0.612-0.907,1.494-0.907,2.647c0,1.165,0.303,2.05,0.907,2.655
			c0.605,0.605,1.491,0.909,2.656,0.909c1.13,0,2.002-0.297,2.619-0.892L55.15,97.282z"/>
		<path fill="#EBECED" d="M58.523,84.809v1.642h-1.223v-1.642H58.523z M57.301,98.417v-9.293h1.223v9.293H57.301z"/>
		<path fill="#EBECED" d="M65.267,88.932c1.513,0,2.69,0.422,3.529,1.266c0.838,0.845,1.257,2.018,1.257,3.52v2.097
			c0,0.198-0.047,0.451-0.14,0.759c-0.093,0.309-0.306,0.606-0.638,0.891c-0.332,0.286-0.812,0.53-1.442,0.733
			c-0.628,0.204-1.483,0.306-2.566,0.306s-1.938-0.102-2.569-0.306c-0.628-0.203-1.109-0.448-1.441-0.733
			c-0.332-0.285-0.543-0.582-0.638-0.891c-0.093-0.308-0.14-0.561-0.14-0.759c0-0.711,0.11-1.27,0.332-1.677
			c0.221-0.408,0.519-0.713,0.892-0.918c0.374-0.202,0.813-0.334,1.32-0.393c0.506-0.058,1.051-0.087,1.633-0.087h4.087
			c-0.163-0.839-0.535-1.479-1.117-1.921s-1.369-0.664-2.358-0.664c-1.002,0-1.812,0.238-2.43,0.716l-0.75-0.961
			C62.913,89.258,63.974,88.932,65.267,88.932z M68.83,93.963h-3.563c-0.78,0-1.407,0.02-1.878,0.061
			c-0.472,0.042-0.833,0.125-1.084,0.253c-0.25,0.128-0.414,0.315-0.489,0.559c-0.074,0.245-0.113,0.572-0.113,0.979
			c0,0.268,0.105,0.495,0.315,0.681c0.208,0.186,0.482,0.337,0.819,0.454c0.338,0.117,0.719,0.201,1.145,0.254
			c0.427,0.053,0.854,0.079,1.285,0.079c0.43,0,0.858-0.026,1.285-0.079c0.423-0.053,0.805-0.137,1.142-0.254
			c0.338-0.116,0.613-0.268,0.822-0.454s0.314-0.413,0.314-0.681V93.963z"/>
		<path fill="#EBECED" d="M79.084,93.735c0-1.513,0.42-2.69,1.259-3.528c0.838-0.838,2.014-1.258,3.529-1.258
			c0.768,0,1.45,0.114,2.052,0.341c0.599,0.227,1.104,0.55,1.51,0.969v-5.433h1.207v8.909c0,1.503-0.42,2.673-1.259,3.512
			c-0.838,0.838-2.009,1.257-3.51,1.257c-1.516,0-2.691-0.419-3.529-1.257C79.504,96.408,79.084,95.238,79.084,93.735z
			 M80.307,93.735c0,1.154,0.303,2.036,0.908,2.647c0.606,0.611,1.491,0.917,2.657,0.917c1.151,0,2.032-0.306,2.645-0.917
			s0.917-1.493,0.917-2.647c0-1.164-0.305-2.049-0.917-2.655c-0.612-0.605-1.493-0.908-2.645-0.908
			c-1.166,0-2.051,0.303-2.657,0.908C80.609,91.686,80.307,92.571,80.307,93.735z"/>
		<path fill="#EBECED" d="M95.243,88.932c1.514,0,2.689,0.422,3.529,1.266c0.839,0.845,1.257,2.018,1.257,3.52v0.017
			c0,0.175-0.06,0.32-0.184,0.438c-0.122,0.116-0.264,0.175-0.426,0.175h-7.706c0.105,0.955,0.455,1.683,1.049,2.184
			s1.413,0.751,2.463,0.751c1.13,0,1.998-0.292,2.604-0.875l0.855,0.875c-0.849,0.814-2.004,1.222-3.459,1.222
			c-1.501,0-2.673-0.419-3.512-1.257c-0.839-0.839-1.257-2.009-1.257-3.512v-0.017c0-1.502,0.418-2.675,1.257-3.52
			C92.553,89.354,93.729,88.932,95.243,88.932z M98.788,93.125c-0.104-0.967-0.455-1.704-1.057-2.21
			c-0.599-0.506-1.428-0.759-2.488-0.759s-1.89,0.253-2.488,0.759c-0.602,0.507-0.946,1.243-1.041,2.21H98.788z"/>
		<path fill="#EBECED" d="M110.947,84.809v1.642h-1.224v-1.642H110.947z M109.724,98.417v-9.293h1.224v9.293H109.724z"/>
		<path fill="#EBECED" d="M112.939,93.735c0-1.513,0.418-2.69,1.257-3.528s2.015-1.258,3.529-1.258c0.768,0,1.452,0.114,2.053,0.341
			c0.6,0.227,1.103,0.55,1.511,0.969v-5.433h1.205v8.909c0,1.503-0.42,2.673-1.258,3.512c-0.837,0.838-2.008,1.257-3.511,1.257
			c-1.515,0-2.69-0.419-3.529-1.257C113.357,96.408,112.939,95.238,112.939,93.735z M114.16,93.735c0,1.154,0.305,2.036,0.909,2.647
			c0.607,0.611,1.492,0.917,2.656,0.917c1.153,0,2.036-0.306,2.647-0.917s0.916-1.493,0.916-2.647c0-1.164-0.305-2.049-0.916-2.655
			c-0.611-0.605-1.494-0.908-2.647-0.908c-1.164,0-2.049,0.303-2.656,0.908C114.465,91.686,114.16,92.571,114.16,93.735z"/>
		<path fill="#EBECED" d="M129.097,88.932c1.516,0,2.691,0.422,3.529,1.266c0.839,0.845,1.259,2.018,1.259,3.52v0.017
			c0,0.175-0.062,0.32-0.184,0.438c-0.122,0.116-0.266,0.175-0.428,0.175h-7.704c0.105,0.955,0.454,1.683,1.049,2.184
			c0.592,0.501,1.415,0.751,2.463,0.751c1.128,0,1.997-0.292,2.602-0.875l0.855,0.875c-0.849,0.814-2.002,1.222-3.457,1.222
			c-1.503,0-2.674-0.419-3.512-1.257c-0.839-0.839-1.257-2.009-1.257-3.512v-0.017c0-1.502,0.418-2.675,1.257-3.52
			C126.407,89.354,127.584,88.932,129.097,88.932z M132.644,93.125c-0.105-0.967-0.457-1.704-1.057-2.21
			c-0.601-0.506-1.43-0.759-2.49-0.759c-1.059,0-1.89,0.253-2.488,0.759c-0.6,0.507-0.946,1.243-1.039,2.21H132.644z"/>
		<path fill="#EBECED" d="M137.326,84.809v1.642h-1.223v-1.642H137.326z M136.104,98.417v-9.293h1.223v9.293H136.104z"/>
		<path fill="#EBECED" d="M144.068,88.932c1.513,0,2.69,0.422,3.529,1.266c0.838,0.845,1.258,2.018,1.258,3.52v2.097
			c0,0.198-0.048,0.451-0.141,0.759c-0.092,0.309-0.306,0.606-0.637,0.891c-0.332,0.286-0.812,0.53-1.441,0.733
			c-0.629,0.204-1.484,0.306-2.568,0.306c-1.083,0-1.938-0.102-2.569-0.306c-0.628-0.203-1.109-0.448-1.44-0.733
			c-0.332-0.285-0.544-0.582-0.638-0.891c-0.093-0.308-0.14-0.561-0.14-0.759c0-0.711,0.11-1.27,0.331-1.677
			c0.222-0.408,0.52-0.713,0.892-0.918c0.374-0.202,0.813-0.334,1.32-0.393c0.506-0.058,1.051-0.087,1.633-0.087h4.089
			c-0.164-0.839-0.537-1.479-1.119-1.921s-1.369-0.664-2.358-0.664c-1.001,0-1.812,0.238-2.43,0.716l-0.749-0.961
			C141.716,89.258,142.776,88.932,144.068,88.932z M147.632,93.963h-3.563c-0.78,0-1.406,0.02-1.878,0.061
			c-0.472,0.042-0.833,0.125-1.083,0.253c-0.251,0.128-0.413,0.315-0.489,0.559c-0.075,0.245-0.114,0.572-0.114,0.979
			c0,0.268,0.105,0.495,0.315,0.681s0.483,0.337,0.819,0.454c0.339,0.117,0.721,0.201,1.146,0.254
			c0.426,0.053,0.854,0.079,1.284,0.079c0.43,0,0.859-0.026,1.285-0.079c0.423-0.053,0.805-0.137,1.144-0.254
			c0.337-0.116,0.611-0.268,0.821-0.454c0.208-0.186,0.313-0.413,0.313-0.681V93.963z"/>
		<path fill="#EBECED" d="M153.957,93.141c0.384,0.083,0.774,0.173,1.171,0.271c0.394,0.099,0.753,0.245,1.073,0.437
			c0.319,0.192,0.579,0.446,0.777,0.76c0.198,0.314,0.296,0.716,0.296,1.206c0,0.838-0.308,1.496-0.925,1.974
			c-0.617,0.478-1.456,0.716-2.517,0.716c-1.069,0-1.915-0.238-2.532-0.716c-0.617-0.478-0.925-1.136-0.925-1.974h1.223
			c0,0.302,0.065,0.549,0.2,0.742s0.308,0.344,0.523,0.455c0.217,0.11,0.457,0.186,0.726,0.227c0.269,0.042,0.53,0.061,0.785,0.061
			c0.257,0,0.518-0.02,0.777-0.061c0.264-0.041,0.501-0.117,0.718-0.227c0.215-0.111,0.392-0.262,0.531-0.455
			c0.141-0.193,0.212-0.44,0.212-0.742c0-0.21-0.032-0.384-0.098-0.525c-0.063-0.139-0.183-0.264-0.357-0.375
			c-0.176-0.111-0.417-0.21-0.726-0.297c-0.31-0.088-0.708-0.184-1.197-0.289c-0.384-0.082-0.774-0.175-1.169-0.279
			c-0.397-0.105-0.755-0.253-1.075-0.446c-0.32-0.192-0.579-0.446-0.777-0.759c-0.198-0.315-0.296-0.722-0.296-1.223
			c0-0.838,0.308-1.496,0.925-1.975c0.617-0.476,1.463-0.715,2.532-0.715c1.061,0,1.899,0.239,2.517,0.715
			c0.617,0.479,0.925,1.136,0.925,1.975h-1.203c0-0.303-0.071-0.551-0.212-0.743c-0.14-0.192-0.316-0.34-0.531-0.445
			c-0.217-0.105-0.454-0.177-0.718-0.218c-0.26-0.042-0.521-0.061-0.777-0.061c-0.255,0-0.517,0.02-0.785,0.061
			c-0.269,0.041-0.509,0.113-0.726,0.218c-0.216,0.105-0.389,0.253-0.523,0.445s-0.2,0.44-0.2,0.743
			c0,0.198,0.026,0.367,0.078,0.506c0.052,0.14,0.163,0.265,0.332,0.376c0.169,0.11,0.406,0.219,0.716,0.323
			C153.033,92.932,153.443,93.037,153.957,93.141z"/>
	</g>
	<g>
		<path fill="#D6D6DA" d="M43.287,59.61h10.677c-1.568,5.979-4.558,10.537-8.97,13.667c-4.414,3.276-9.966,4.912-16.655,4.912
			c-8.115,0-14.451-2.633-19.005-7.902C4.775,65.163,2.5,57.832,2.5,48.293c0-9.109,2.205-16.229,6.619-21.354
			c4.556-5.265,10.892-7.901,19.005-7.901c8.542,0,15.163,2.563,19.861,7.688c2.562,3.133,4.41,6.763,5.552,10.891H38.588
			c-0.714-1.422-1.424-2.489-2.135-3.203c-1.853-1.992-4.484-2.99-7.901-2.99c-3.134,0-5.695,0.998-7.688,2.99
			c-2.563,2.849-3.845,7.547-3.845,14.093c0,6.55,1.282,11.179,3.845,13.881c1.848,2.278,4.626,3.417,8.329,3.417
			c2.418,0,4.483-0.498,6.191-1.496c0.429-0.14,0.819-0.39,1.176-0.747c0.353-0.354,0.746-0.748,1.174-1.174
			c0.285-0.427,0.854-0.995,1.709-1.708C40.296,59.967,41.577,59.61,43.287,59.61z"/>
		<path fill="#D6D6DA" d="M56.313,77.121V49.574c0-5.552,0.817-10.213,2.455-13.987c1.637-3.771,3.877-6.796,6.727-9.076
			c2.703-2.135,5.873-3.7,9.505-4.697c3.63-0.995,7.367-1.495,11.21-1.495c0.283,0,0.639,0,1.066,0s0.782,0,1.069,0V35.48h-4.912
			c-4.131,0-7.191,0.997-9.183,2.989c-1.995,1.996-2.988,5.125-2.988,9.396v29.255H56.313z"/>
		<path fill="#D6D6DA" d="M129.344,59.61h10.677c-1.569,5.979-4.559,10.537-8.969,13.667c-4.414,3.276-9.966,4.912-16.657,4.912
			c-8.113,0-14.449-2.633-19.003-7.902c-4.559-5.125-6.834-12.455-6.834-21.994c0-9.109,2.205-16.229,6.62-21.354
			c4.554-5.265,10.891-7.901,19.006-7.901c8.541,0,15.16,2.563,19.857,7.688c4.556,5.269,6.834,12.599,6.834,21.995
			c0,0.571,0,1.068,0,1.495c0,0.428,0,0.714,0,0.854c0,0.714-0.073,1.211-0.213,1.495H103.72c0.14,4.414,1.207,7.688,3.202,9.823
			c1.849,2.278,4.624,3.417,8.328,3.417c2.42,0,4.484-0.498,6.193-1.496c0.426-0.14,0.816-0.39,1.174-0.747
			c0.354-0.354,0.748-0.748,1.175-1.174c0.14-0.427,0.673-0.995,1.6-1.708C126.317,59.967,127.637,59.61,129.344,59.61z
			 M103.72,42.955h21.779c-0.286-3.844-1.281-6.69-2.989-8.542c-1.851-1.992-4.483-2.99-7.9-2.99c-3.132,0-5.695,0.998-7.688,2.99
			C104.927,36.408,103.859,39.254,103.72,42.955z"/>
		<path fill="#D6D6DA" d="M179.526,74.772c-2.989,1.568-6.161,2.526-9.503,2.883c-3.347,0.354-6.299,0.534-8.862,0.534
			c-5.126,0-9.609-1.388-13.452-4.165c-3.845-2.776-5.768-7.367-5.768-13.773c0-5.979,1.743-10.25,5.233-12.813
			c3.487-2.563,7.934-4.271,13.346-5.125c0.711,0,1.564-0.106,2.563-0.32c0.993-0.214,2.134-0.39,3.415-0.533
			c6.265-0.855,9.397-2.703,9.397-5.552c0-2.136-1.104-3.523-3.312-4.165c-2.209-0.641-4.236-0.961-6.086-0.961
			c-1.994,0-3.772,0.287-5.338,0.854c-1.567,0.57-2.706,1.639-3.416,3.203h-14.308c0.566-4.412,2.563-8.042,5.979-10.891
			c3.845-3.273,9.322-4.912,16.442-4.912c7.973,0,13.951,1.354,17.938,4.058c4.128,2.85,6.193,6.833,6.193,11.958v19.431
			c0,5.696-1.034,10.144-3.097,13.348C184.828,71.035,182.372,73.351,179.526,74.772z M176.109,48.506
			c-1.996,0.999-4.771,1.922-8.329,2.777l-4.911,1.068c-2.563,0.714-4.414,1.638-5.552,2.775c-0.997,1.568-1.493,3.133-1.493,4.698
			c0,2.135,0.639,3.844,1.921,5.125c1.281,1.141,3.13,1.708,5.552,1.708c3.983,0,7.117-1.138,9.396-3.417
			c2.275-2.275,3.417-5.408,3.417-9.395V48.506z"/>
		<path fill="#D6D6DA" d="M217.323,77.121c-4.698,0.283-9.79,0.213-15.27-0.214c-5.48-0.427-8.221-3.914-8.221-10.464V3.663h7.688
			c1.85,0,3.487,0.714,4.911,2.135c1.422,1.425,2.136,3.133,2.136,5.125v9.609h8.756v2.99c0,2.136-0.715,3.881-2.135,5.232
			c-1.425,1.354-3.134,2.028-5.126,2.028h-1.495v31.604c0,2.422,1.422,3.63,4.271,3.63h4.485V77.121z"/>
		<path fill="#D6D6DA" d="M219.885,3.663h7.688c1.992,0,3.699,0.714,5.124,2.135c1.422,1.425,2.137,3.133,2.137,5.125v4.485h-14.949
			V3.663z M219.885,20.319h7.688c1.992,0,3.699,0.714,5.124,2.135c1.422,1.425,2.137,3.133,2.137,5.125v49.542h-14.949V20.319z"/>
	</g>
	<g>
		<path fill="#DBAD4B" d="M269.542,26.398c8.621,0,15.34,2.406,20.151,7.218c4.813,4.813,7.218,11.563,7.218,20.251
			c0,8.622-2.405,15.339-7.218,20.15c-4.812,4.813-11.53,7.219-20.151,7.219c-8.688,0-15.438-2.406-20.251-7.219
			c-4.811-4.812-7.218-11.529-7.218-20.15V2.738h7.018v31.179c2.339-2.406,5.229-4.261,8.672-5.564
			C261.204,27.05,265.131,26.398,269.542,26.398z M269.542,74.319c6.617,0,11.681-1.755,15.188-5.263
			c3.51-3.51,5.265-8.571,5.265-15.188c0-6.682-1.755-11.762-5.265-15.238c-3.508-3.475-8.571-5.213-15.188-5.213
			c-6.683,0-11.764,1.738-15.237,5.213c-3.477,3.476-5.214,8.556-5.214,15.238c0,6.617,1.737,11.679,5.214,15.188
			C257.778,72.564,262.859,74.319,269.542,74.319z"/>
		<path fill="#DBAD4B" d="M331.297,26.298c8.687,0,15.438,2.423,20.251,7.268c4.813,4.847,7.218,11.58,7.218,20.201v0.101
			c0,1.002-0.35,1.839-1.052,2.506c-0.701,0.668-1.522,1.003-2.456,1.003h-44.212c0.602,5.48,2.605,9.659,6.014,12.531
			c3.409,2.875,8.122,4.312,14.137,4.312c6.482,0,11.462-1.669,14.938-5.013l4.912,5.013c-4.88,4.679-11.495,7.018-19.85,7.018
			c-8.621,0-15.338-2.406-20.15-7.219c-4.813-4.812-7.218-11.529-7.218-20.15v-0.101c0-8.621,2.405-15.354,7.218-20.201
			C315.858,28.722,322.609,26.298,331.297,26.298z M351.647,50.358c-0.602-5.546-2.622-9.774-6.064-12.682
			c-3.443-2.907-8.205-4.361-14.286-4.361c-6.082,0-10.846,1.454-14.286,4.361c-3.444,2.907-5.432,7.136-5.965,12.682H351.647z"/>
		<path fill="#DBAD4B" d="M372.5,80.736h-7.018v-9.424h7.018V80.736z"/>
	</g>
</g>
</svg>
